HIERARCHY
ROOT Pelvis
{
	OFFSET 0.000000 0.000000 0.000000
	CHANNELS 6 Xposition Yposition Zposition Xrotation Yrotation Zrotation
	JOINT LeftUpLeg_virtual
	{
		OFFSET 0.000000 0.000000 0.000000
		CHANNELS 3 Xrotation Yrotation Zrotation
		JOINT LeftUpLeg
		{
			OFFSET 8.479700 -4.795502 -0.379100
			CHANNELS 3 Xrotation Yrotation Zrotation
			JOINT LeftLeg
			{
				OFFSET 0.024144 -32.555107 0.112900
				CHANNELS 3 Xrotation Yrotation Zrotation
				JOINT LeftFoot
				{
					OFFSET -0.024144 -32.638630 -3.012600
					CHANNELS 3 Xrotation Yrotation Zrotation
					JOINT LeftToeBase
					{
						OFFSET 0.970200 -13.225400 11.864200
						CHANNELS 3 Xrotation Yrotation Zrotation
						End Site
						{
							OFFSET 0 0 0
						}
					}
				}
			}
		}
	}
	JOINT RightUpLeg_virtual
	{
		OFFSET 0.000000 0.000000 0.000000
		CHANNELS 3 Xrotation Yrotation Zrotation
		JOINT RightUpLeg
		{
			OFFSET -8.479700 -4.795502 -0.379100
			CHANNELS 3 Xrotation Yrotation Zrotation
			JOINT RightLeg
			{
				OFFSET -0.023144 -32.555092 0.112900
				CHANNELS 3 Xrotation Yrotation Zrotation
				JOINT RightFoot
				{
					OFFSET 0.023144 -32.638641 -3.012700
					CHANNELS 3 Xrotation Yrotation Zrotation
					JOINT RightToeBase
					{
						OFFSET -0.970200 -13.225400 11.864200
						CHANNELS 3 Xrotation Yrotation Zrotation
						End Site
						{
							OFFSET 0 0 0
						}
					}
				}
			}
		}
	}
	JOINT Hips_virtual
	{
		OFFSET 0.000000 0.000000 0.000000
		CHANNELS 3 Xrotation Yrotation Zrotation
		JOINT Hips
		{
			OFFSET -0.000000 -0.000000 -0.000000
			CHANNELS 3 Xrotation Yrotation Zrotation
			JOINT Spine
			{
				OFFSET 0.000000 7.722000 1.166200
				CHANNELS 3 Xrotation Yrotation Zrotation
				JOINT Spine1
				{
					OFFSET 0.000000 12.024101 0.248800
					CHANNELS 3 Xrotation Yrotation Zrotation
					JOINT Spine2
					{
						OFFSET 0.000000 11.502998 -0.491200
						CHANNELS 3 Xrotation Yrotation Zrotation
						JOINT Neck_virtual
						{
							OFFSET 0.000000 0.000000 0.000000
							CHANNELS 3 Xrotation Yrotation Zrotation
							JOINT Neck
							{
								OFFSET 0.000000 18.430702 -3.123100
								CHANNELS 3 Xrotation Yrotation Zrotation
								JOINT Head
								{
									OFFSET 0.000000 9.051102 1.034000
									CHANNELS 3 Xrotation Yrotation Zrotation
									End Site
									{
										OFFSET 0 0 0
									}
								}
							}
						}
						JOINT LeftShoulder_virtual
						{
							OFFSET 0.000000 0.000000 0.000000
							CHANNELS 3 Xrotation Yrotation Zrotation
							JOINT LeftShoulder
							{
								OFFSET 6.197800 13.665199 -4.064700
								CHANNELS 3 Xrotation Yrotation Zrotation
								JOINT LeftArm
								{
									OFFSET 7.778100 -0.187103 -1.709300
									CHANNELS 3 Xrotation Yrotation Zrotation
									JOINT LeftForeArm
									{
										OFFSET 22.049376 0.000000 0.000000
										CHANNELS 3 Xrotation Yrotation Zrotation
										JOINT LeftHand
										{
											OFFSET 23.009392 0.000000 0.000000
											CHANNELS 3 Xrotation Yrotation Zrotation
											End Site
											{
												OFFSET 0 0 0
											}
										}
									}
								}
							}
						}
						JOINT RightShoulder_virtual
						{
							OFFSET 0.000000 0.000000 0.000000
							CHANNELS 3 Xrotation Yrotation Zrotation
							JOINT RightShoulder
							{
								OFFSET -6.197800 13.665199 -4.064700
								CHANNELS 3 Xrotation Yrotation Zrotation
								JOINT RightArm
								{
									OFFSET -7.778100 -0.187103 -1.709300
									CHANNELS 3 Xrotation Yrotation Zrotation
									JOINT RightForeArm
									{
										OFFSET -22.049376 0.000000 0.000000
										CHANNELS 3 Xrotation Yrotation Zrotation
										JOINT RightHand
										{
											OFFSET -23.009392 0.000000 0.000000
											CHANNELS 3 Xrotation Yrotation Zrotation
											End Site
											{
												OFFSET 0 0 0
											}
										}
									}
								}
							}
						}
					}
				}
			}
		}
	}
}
MOTION
Frames: 7
Frame Time: 0.03333333
-0.169202 73.867889 0.174976 0.000000 0.000000 0.000000 3.016509 -58.257354 6.570235 -35.249865 10.175198 24.287755 43.161157 -7.481277 -9.789066 -9.608922 -2.809829 -8.081555 0.000000 0.000000 0.000000 3.016509 -58.257354 6.570235 -32.837470 -8.273079 -25.543058 48.057904 2.419849 -7.553118 -19.172992 2.835484 20.742431 0.000000 0.000000 0.000000 3.016509 -58.257354 6.570235 0.000000 0.000000 0.000000 11.191589 0.111548 -2.787770 8.434584 0.027708 -5.592326 0.000000 0.000000 0.000000 8.457048 0.027865 -5.591872 -21.555647 25.063369 12.062564 0.000000 0.000000 0.000000 8.457048 0.027865 -5.591872 -6.221668 -11.503858 -4.023826 -23.062176 9.568549 -36.639604 0.046109 -43.169118 -0.011165 0.000000 0.000000 0.000000 8.457048 0.027865 -5.591872 -5.488235 10.658259 2.466538 -41.473810 -26.755579 30.079074 -155.044502 68.137011 156.691493 0.000000 0.000000 0.000000 
-0.197763 73.832428 0.241131 0.000000 0.000000 0.000000 2.478258 -58.252764 6.036107 -35.058176 10.118963 24.332791 43.436585 -7.559962 -9.706772 -9.807238 -2.759630 -8.084499 0.000000 0.000000 0.000000 2.478258 -58.252764 6.036107 -32.759090 -8.723274 -26.014681 48.206563 3.071472 -7.154163 -19.277468 2.936596 20.308229 0.000000 0.000000 0.000000 2.478258 -58.252764 6.036107 0.000000 -0.000002 0.000000 11.181233 0.100000 -2.763599 8.413342 0.007713 -5.542170 0.000000 0.000000 0.000000 8.435804 0.007773 -5.541681 -21.652145 24.945120 12.088957 0.000000 0.000000 0.000000 8.435804 0.007773 -5.541681 -6.261269 -11.506434 -4.015206 -22.811114 9.698544 -36.516613 0.794402 -43.624111 0.229670 0.000000 0.000000 0.000000 8.435804 0.007773 -5.541681 -5.513968 10.443167 2.326542 -40.253474 -26.263816 30.874299 -157.289175 68.700529 158.678285 0.000000 0.000000 0.000000 
-0.313123 73.718399 0.426931 0.000000 0.000000 0.000000 1.757327 -58.195302 5.327261 -34.858598 9.987930 24.445899 44.112422 -7.763545 -9.697532 -10.324015 -2.699372 -8.007179 0.000000 0.000000 0.000000 1.757327 -58.195302 5.327261 -32.508647 -9.127920 -26.507211 48.532336 3.635036 -6.871058 -19.597380 2.951930 20.115501 0.000000 0.000000 0.000000 1.757327 -58.195302 5.327261 0.000000 0.000001 0.000000 11.142267 0.069099 -2.698596 8.334206 -0.045757 -5.404249 0.000000 0.000000 0.000000 8.356678 -0.045666 -5.403786 -21.836697 24.626047 12.153090 0.000000 0.000000 0.000000 8.356678 -0.045666 -5.403786 -6.328837 -11.488485 -3.983639 -22.131667 10.073036 -36.144029 2.769404 -44.886873 0.926428 0.000000 0.000000 0.000000 8.356678 -0.045666 -5.403786 -5.548075 9.866014 1.937128 -37.030540 -24.874099 32.856922 -164.018414 70.090821 164.779270 0.000000 0.000000 0.000000 
-0.501147 73.568031 0.698668 0.000000 0.000000 0.000000 0.910080 -58.081818 4.490058 -34.624206 9.892085 24.673990 44.947429 -8.156692 -9.803637 -11.007272 -2.644118 -7.807173 0.000000 0.000000 0.000000 0.910080 -58.081818 4.490058 -32.059118 -9.493503 -26.936181 48.899281 4.033865 -6.713492 -20.035588 2.906704 20.100308 0.000000 0.000000 0.000000 0.910080 -58.081818 4.490058 0.000000 -0.000001 0.000000 11.077121 0.023363 -2.601805 8.202123 -0.124049 -5.198299 0.000000 0.000000 0.000000 8.224616 -0.123934 -5.197835 -22.026522 24.153017 12.233264 0.000000 0.000000 0.000000 8.224616 -0.123934 -5.197835 -6.417282 -11.419017 -3.918484 -21.132122 10.674320 -35.524466 5.610356 -46.795501 2.096774 0.000000 0.000000 0.000000 8.224616 -0.123934 -5.197835 -5.599943 9.021864 1.345364 -32.495103 -22.695865 35.348148 -175.656005 71.657864 175.667725 0.000000 0.000000 0.000000 
-0.747998 73.415321 1.022713 0.000000 0.000000 0.000000 -0.006103 -57.910346 3.571840 -34.328654 9.814293 24.920095 45.815809 -8.624070 -9.885183 -11.770113 -2.590619 -7.593386 0.000000 0.000000 0.000000 -0.006103 -57.910346 3.571840 -31.372435 -9.777486 -27.214014 49.201524 4.194270 -6.676406 -20.524259 2.809128 20.262065 0.000000 0.000000 0.000000 -0.006103 -57.910346 3.571840 0.000000 -0.000002 0.000000 10.987757 -0.031846 -2.482134 8.021434 -0.218880 -4.943913 0.000000 0.000000 0.000000 8.043891 -0.218781 -4.943434 -22.139454 23.571254 12.309609 0.000000 0.000000 0.000000 8.043891 -0.218781 -4.943434 -6.517729 -11.266677 -3.808852 -19.916943 11.490696 -34.664272 8.966829 -49.187877 3.756292 0.000000 0.000000 0.000000 8.043891 -0.218781 -4.943434 -5.677149 8.006202 0.598007 -27.295046 -19.926467 37.715444 167.963272 72.488279 -168.579628 0.000000 0.000000 0.000000 
-1.039905 73.294029 1.365335 0.000000 0.000000 0.000000 -0.933980 -57.680278 2.620182 -33.951689 9.789518 25.190778 46.545724 -9.178204 -9.952779 -12.504598 -2.547983 -7.364878 0.000000 0.000000 0.000000 -0.933980 -57.680278 2.620182 -30.431908 -9.970755 -27.265895 49.337270 4.062257 -6.767903 -20.989407 2.670034 20.595991 0.000000 0.000000 0.000000 -0.933980 -57.680278 2.620182 0.000000 0.000000 0.000000 10.873657 -0.091753 -2.348604 7.791969 -0.321399 -4.660421 0.000000 0.000000 0.000000 7.814442 -0.321276 -4.659952 -22.076985 22.928624 12.360633 0.000000 0.000000 0.000000 7.814442 -0.321276 -4.659952 -6.612181 -10.999726 -3.645098 -18.588510 12.512377 -33.564267 12.438327 -51.915032 5.832335 0.000000 0.000000 0.000000 7.814442 -0.321276 -4.659952 -5.772202 6.915191 -0.258730 -21.958210 -16.906554 39.510687 149.685139 71.724602 -150.623840 0.000000 0.000000 0.000000 
-1.362584 73.238159 1.693213 0.000000 0.000000 0.000000 -1.817373 -57.392570 1.680741 -33.482885 9.700422 25.394553 47.079425 -9.633919 -9.954984 -13.060572 -2.503564 -7.197977 0.000000 0.000000 0.000000 -1.817373 -57.392570 1.680741 -29.330666 -10.243984 -27.160611 49.219938 3.793872 -6.943648 -21.360995 2.529989 20.988282 0.000000 0.000000 0.000000 -1.817373 -57.392570 1.680741 0.000000 0.000002 0.000000 10.732783 -0.151296 -2.209694 7.508710 -0.422823 -4.366855 0.000000 0.000000 0.000000 7.531187 -0.422714 -4.366382 -21.736012 22.273416 12.364532 0.000000 0.000000 0.000000 7.531187 -0.422714 -4.366382 -6.671761 -10.584853 -3.418115 -17.246743 13.730714 -32.214669 15.504891 -54.870704 8.081131 0.000000 0.000000 0.000000 7.531187 -0.422714 -4.366382 -5.864163 5.845912 -1.136027 -16.889876 -14.076097 40.489051 134.153193 69.231228 -135.011052 0.000000 0.000000 0.000000 
